<?xml version="1.0" encoding="UTF-8"?>
<svg id="Layer_2" data-name="Layer 2" xmlns="http://www.w3.org/2000/svg" viewBox="0 0 387.95 49.54">
  <defs>
    <style>
      .cls-1 {
        fill: #fff;
      }
    </style>
  </defs>
  <g id="Layer_2-2" data-name="Layer 2">
    <g id="Layer_3" data-name="Layer 3">
      <path class="cls-1" d="M6.99,15.92h12.73l-8.2,25.22c-.03.16-.06.31-.09.47s-.03.3,0,.42c0,.16.02.3.07.45s.1.27.16.4c.06.12.15.26.26.4.11.14.23.26.35.35.12.09.27.17.42.23.16.06.33.09.52.09h7.4c.19,0,.37,0,.54-.02s.32-.05.45-.12c.16-.03.3-.09.45-.19s.27-.17.4-.23c.12-.09.26-.2.4-.33s.24-.27.3-.42c.09-.12.18-.28.26-.47.08-.19.15-.34.21-.47l1.71-25.78h14.49l-6.61,24.71c-.06.25-.14.51-.23.77s-.17.52-.23.77c-.09.28-.2.56-.33.84-.12.28-.25.55-.38.8-.09.25-.22.52-.38.8s-.31.53-.47.75l-.56.75c-.19.25-.39.5-.61.75-.16.19-.33.38-.52.56s-.39.34-.61.47c-.19.12-.41.27-.66.42-.25.16-.48.28-.7.38-.28.12-.58.25-.89.38-.31.12-.63.2-.94.23-.34.06-.7.12-1.08.16s-.75.07-1.12.07H5.68c-.34,0-.69-.02-1.03-.05-.34-.03-.64-.08-.89-.14-.28-.03-.55-.1-.8-.21s-.48-.23-.7-.35c-.19-.12-.37-.27-.54-.42-.17-.16-.34-.31-.49-.47-.12-.19-.25-.38-.38-.59-.12-.2-.23-.4-.33-.59-.09-.22-.18-.46-.26-.73s-.13-.52-.16-.77c0-.28-.02-.56-.05-.84-.03-.28-.05-.56-.05-.84.03-.28.05-.56.07-.84.02-.28.05-.56.12-.84,0-.28.03-.57.09-.87s.12-.57.19-.82L6.99,15.92Z"/>
      <path class="cls-1" d="M69.9,15.92l-1.45,5.44h-14.16l-2.16,7.97h13.78l-1.5,5.62h-13.88l-3.89,14.58h-11.62l8.95-33.61h25.93Z"/>
      <path class="cls-1" d="M74.63,16.02l11.81-.09-9,33.61h-11.77l8.95-33.52h.01Z"/>
      <path class="cls-1" d="M113.73,15.97h25.27c.59,0,1.15.05,1.66.14s.98.2,1.38.33c.38.16.73.36,1.05.61.33.25.59.53.77.84.09.12.17.29.23.49.06.2.12.4.19.59.03.22.06.45.09.7s.05.48.05.7c-.03.38-.09.79-.16,1.24-.08.45-.18.93-.3,1.43l-1.83,6.89c-.06.16-.12.33-.16.52s-.09.34-.12.47c-.03.16-.09.33-.16.52-.08.19-.16.36-.26.52-.06.16-.14.32-.23.49s-.19.32-.28.45-.22.27-.38.42c-.16.16-.3.3-.42.42-.09.09-.2.19-.33.28-.12.09-.25.17-.38.23-.12.06-.27.13-.45.21-.17.08-.34.13-.49.16-.16.06-.33.12-.52.16s-.38.07-.56.07c-.22.03-.44.05-.66.07s-.45.02-.7.02l2.81,14.53h-13.03l-1.69-14.48h-3.75l-3.89,14.48h-11.72l8.95-33.52.02.02ZM124.09,21.5l-2.11,7.92h7.36c.12,0,.24,0,.35-.02s.18-.04.21-.07c.09-.03.19-.09.28-.16s.17-.15.23-.21c.03-.03.08-.09.14-.19.06-.09.11-.19.14-.28s.07-.2.12-.3.09-.24.12-.4l1.36-5.11c.03-.09.05-.19.07-.3.02-.11.02-.19.02-.26s-.02-.12-.07-.19c-.05-.06-.09-.12-.12-.19-.03-.03-.09-.07-.16-.12-.08-.05-.15-.07-.21-.07-.09,0-.19,0-.28-.02s-.17-.02-.23-.02h-7.22Z"/>
      <path class="cls-1" d="M152.12,15.92h25.92l-1.45,5.44h-14.06l-2.16,8.06h13.69l-1.5,5.48h-13.69l-2.44,9.14h14.39l-1.45,5.44h-26.2s8.95-33.56,8.95-33.56Z"/>
      <path class="cls-1" d="M210.2,15.97l-1.5,5.53h-15.7c-.06,0-.14,0-.23.02s-.16.04-.19.07c-.09.03-.19.07-.28.12s-.17.09-.23.12c-.06.06-.12.12-.19.19-.06.06-.12.11-.19.14-.06.06-.12.13-.16.21-.05.08-.07.15-.07.21l-.66,2.48c-.03.06-.05.12-.05.19v.14c0,.06.02.13.05.21s.06.13.09.16c.03.06.08.14.14.23s.12.16.19.19c.09.06.18.11.26.14s.16.05.26.05h10.31c.19,0,.39,0,.61.02s.44.04.66.07.43.08.63.14.4.11.59.14c.19.06.38.14.56.23s.36.19.52.28.32.21.49.35.32.27.45.4c.09.12.19.26.28.4s.16.27.19.4l.19.47c.06.16.11.31.14.47s.05.34.05.54v.59c-.03.19-.06.4-.09.63s-.08.48-.14.73l-2.77,10.27c-.03.16-.08.33-.14.52s-.12.36-.19.52c-.03.16-.09.33-.16.52s-.15.34-.21.47c-.12.25-.25.48-.38.7s-.25.42-.38.61-.27.38-.45.59-.32.38-.45.54c-.34.34-.7.66-1.08.96s-.78.55-1.22.77l-.84.38c-.28.12-.58.2-.89.23-.28.06-.58.12-.89.16s-.62.07-.94.07h-22.22l1.45-5.58h15.66c.09,0,.19,0,.28-.02s.19-.04.28-.07c.12-.03.23-.06.33-.09s.19-.08.28-.14c.06-.03.14-.08.23-.14s.17-.12.23-.19.12-.14.19-.23.09-.19.09-.28l.8-2.95c.03-.06.05-.14.05-.23s-.02-.17-.05-.23-.07-.12-.12-.19-.1-.12-.16-.19l-.14-.14c-.06-.06-.12-.11-.19-.14-.09-.03-.18-.05-.26-.07s-.16-.02-.26-.02h-11.34c-.19,0-.38,0-.59-.02s-.4-.04-.59-.07-.37-.07-.54-.12-.32-.1-.45-.16c-.16-.03-.3-.09-.45-.19s-.27-.17-.4-.23c-.12-.09-.23-.2-.33-.3s-.19-.21-.28-.3c-.16-.25-.3-.52-.42-.8-.06-.12-.11-.28-.14-.47s-.05-.38-.05-.56c-.03-.31-.03-.66,0-1.05s.11-.8.23-1.24l2.81-10.5c.06-.19.12-.38.19-.59.06-.2.14-.4.23-.59.06-.19.15-.39.26-.61.11-.22.23-.42.35-.61.09-.19.21-.38.35-.59.14-.2.27-.4.4-.59.16-.19.32-.38.49-.56s.35-.36.54-.52c.12-.16.27-.3.45-.42.17-.12.34-.25.49-.38.19-.12.38-.24.56-.35.19-.11.38-.21.56-.3.19-.06.38-.12.59-.19.2-.06.4-.12.59-.19.19-.03.4-.06.63-.09.23-.03.46-.05.68-.05h22.69l.03-.03Z"/>
      <path class="cls-1" d="M215.49,15.92h25.92l-1.45,5.44h-14.06l-2.16,8.06h13.69l-1.5,5.48h-13.69l-2.44,9.14h14.39l-1.45,5.44h-26.2s8.95-33.56,8.95-33.56Z"/>
      <path class="cls-1" d="M269.68,16.02l3.8,33.52h-12.56l-1.08-8.91h-13.64l-6.47,8.91h-5.62l23.81-33.52h11.77-.01ZM257.92,23.56l-7.73,11.44h9.23s-1.5-11.44-1.5-11.44Z"/>
      <path class="cls-1" d="M286.93,15.97h25.27c.59,0,1.15.05,1.66.14s.98.2,1.38.33c.38.16.73.36,1.05.61.33.25.59.53.77.84.09.12.17.29.23.49.06.2.12.4.19.59.03.22.06.45.09.7s.05.48.05.7c-.03.38-.09.79-.16,1.24-.08.45-.18.93-.3,1.43l-1.83,6.89c-.06.16-.12.33-.16.52l-.12.47c-.03.16-.09.33-.16.52s-.16.36-.26.52c-.06.16-.14.32-.23.49s-.19.32-.28.45-.22.27-.38.42l-.42.42c-.09.09-.2.19-.33.28s-.25.17-.38.23-.27.13-.45.21-.34.13-.49.16c-.16.06-.33.12-.52.16s-.38.07-.56.07c-.22.03-.44.05-.66.07s-.45.02-.7.02l2.81,14.53h-13.03l-1.69-14.48h-3.75l-3.89,14.48h-11.72l8.95-33.52.02.02ZM297.29,21.5l-2.11,7.92h7.36c.12,0,.24,0,.35-.02s.18-.04.21-.07c.09-.03.19-.09.28-.16s.17-.15.23-.21c.03-.03.08-.09.14-.19s.11-.19.14-.28.07-.2.12-.3.09-.24.12-.4l1.36-5.11c.03-.09.05-.19.07-.3.02-.11.02-.19.02-.26s-.02-.12-.07-.19c-.05-.06-.09-.12-.12-.19-.03-.03-.09-.07-.16-.12s-.15-.07-.21-.07c-.09,0-.19,0-.28-.02s-.17-.02-.23-.02h-7.22Z"/>
      <path class="cls-1" d="M351.24,15.83l-1.45,5.53h-12.84c-.19,0-.39.05-.61.14-.12.06-.25.13-.38.21-.12.08-.23.15-.33.21-.22.19-.41.38-.56.56-.06.09-.12.2-.19.3-.06.11-.09.21-.09.3l-5.16,19.22c-.06.19-.06.38,0,.56,0,.09.03.2.09.3s.12.2.19.26c.09.06.19.13.28.21s.17.13.23.16c.09.06.2.1.3.12s.21.02.3.02h13.12l-1.5,5.58h-19.78c-.25,0-.51,0-.77-.02s-.51-.05-.73-.12c-.22-.03-.45-.1-.68-.21s-.46-.21-.68-.3c-.19-.09-.37-.2-.54-.33s-.32-.27-.45-.42c-.16-.12-.3-.29-.42-.49s-.22-.4-.28-.59c-.09-.16-.17-.34-.23-.54s-.12-.41-.19-.63-.11-.45-.14-.68-.05-.48-.05-.73c.03-.22.05-.45.05-.68s.02-.48.05-.73.07-.51.12-.77.12-.54.21-.82l4.59-17.34c.06-.28.14-.56.23-.84s.19-.53.28-.75.21-.45.35-.7.26-.5.35-.75c.16-.25.33-.51.52-.77.19-.27.36-.51.52-.73s.34-.44.54-.66.4-.42.59-.61c.19-.16.38-.31.56-.47.19-.16.36-.31.52-.47.19-.12.38-.25.59-.38.2-.12.4-.23.59-.33.25-.12.51-.24.77-.35.27-.11.52-.19.77-.26.25-.06.52-.12.8-.16s.55-.07.8-.07h19.73v.02Z"/>
      <path class="cls-1" d="M367.42,15.92l-3.61,13.41h8.86l3.61-13.41h11.67l-9,33.56h-11.67l3.89-14.58h-8.86l-3.89,14.58h-11.72l8.95-33.56s11.77,0,11.77,0Z"/>
      <g>
        <path class="cls-1" d="M37.51,11.28c-.44,2.27-5.63,3.22-12.04,2.38l.36-5.43-3.4-.65-1.67,5.16c-6.19-1.59-10.58-4.38-10.15-6.63.49-2.53,6.91-3.43,14.34-2,7.43,1.43,13.06,4.64,12.57,7.17h0Z"/>
        <path class="cls-1" d="M31.72,5.57c-1.93-.84-4.27-1.55-6.82-2.04-2.6-.5-5.07-.69-7.19-.63.78-1.49,3.98-2.13,7.55-1.45s6.26,2.45,6.47,4.12c0,0,0,0-.01,0Z"/>
        <rect class="cls-1" x="24.47" y=".65" width="1.93" height=".73" transform="translate(19.64 25.81) rotate(-79.13)"/>
      </g>
    </g>
  </g>
</svg>