<?xml version="1.0" encoding="UTF-8"?>
<svg id="Layer_2" data-name="Layer 2" xmlns="http://www.w3.org/2000/svg" viewBox="0 0 656.94 468.32">
  <defs>
    <style>
      .cls-1 {
        fill: #132705;
      }

      .cls-2 {
        fill: #fff;
      }

      .cls-3 {
        fill: #636363;
      }

      .cls-4 {
        fill: #656565;
      }

      .cls-5 {
        fill: #949494;
      }
    </style>
  </defs>
  <g id="Layer_1-2" data-name="Layer 1">
    <g>
      <path class="cls-3" d="M570.57,367.01c18.64-14.74,32.72-32.08,42.67-54.11,4.99-11.06,16.1-32.19,17.78-43.78,12.72,13.16,22.18,33.32,24.97,51.29,6.49,41.77-20.58,59.47-59.25,57.05-8.87-.55-19.52-4.4-26.16-10.45Z"/>
      <path class="cls-5" d="M189.5,48.93c-15.02,9.07-47.24,39.73-61.3,54.14-.9.92-2.45.52-2.81-.71-6.68-22.83-21.11-40.32-47.7-35.2-23.87,4.59-29.02,26.69-31.16,47.71-.09.89-.85,1.54-1.74,1.51C-.15,111.92-13.71,166.7,15.3,194.41c13.46,11.66,36.86,16.07,54.15,19.3,3.01,1.46,14.08-.05,14.16,3.49-7.11,56.26,20,110.21,63.93,144.48,27.66,17.24,62.89,42.19,94.81,49.71,2.79,1.77.25,8.12.33,10.64-1.23,41.8,29.27,50.84,65.39,44.45,22.51-3.5,38.89-21.79,55.06-35.6,129.26,2.54,298.68-65.7,266.66-224.21-11.99-59.33-39.1-120.86-93.29-151.87,0,0-30.28-20.93-41.61-25.41-11.16-4.42-69.13-23.13-81.05-24.61-76.42-9.48-158.71,4.51-224.33,44.15Z"/>
      <path class="cls-3" d="M549.18,63.18c-3.6,3.57-7.29,10.03-9.87,14.5-12.08,20.93-18.41,42.87-20.48,66.9-.15,1.78-1.01,3.44-2.42,4.54-7.11,5.54-11.1-3.74-10.68-12.05,1.41-28.31,17.66-57.92,32.21-81.38,3.27-5.28,1.21-2.21.81-7.19-.6-7.49.48-12.92,7.91-15.96,7.75-3.18,13.45-1.19,18.25,5.53,6.67,9.33,1.74,21.54-9.7,23.29-3.64.56-2.32-1.85-6.03,1.83Z"/>
      <path class="cls-3" d="M338.41,55.85c4.78-.98,13.39.08,17.08,3.56,4.68,4.41,1.05,13.1,3.29,16.2.83,1.15,15.58,8.95,18.73,11.25,17.07,12.5,30.48,27.59,40.92,46.05,1.72,3.03,7.9,14.44,8.43,17.06,1.26,6.17-1.62,11.27-8.43,9.94-4.35-.85-12.7-19.56-15.53-24.21-10.41-17.13-21.51-29.94-38.12-41.35-6.73-4.84-9.79-7.36-13.42-8.33-5.66-1.51-11.64,3.85-19.01-.46-12.03-7.04-5.92-27.25,6.05-29.72Z"/>
      <path class="cls-4" d="M464.47,21.95s.02-.02.03-.03c-.76,6.85,7.92,8.37,10,2.11.45-1.36.71-2.63,1.36-6.22.86-4.7,4.76-19.82-5.4-16.56-4.99,1.6-5.13,11.59-5.27,13.7"/>
      <path class="cls-4" d="M173.08,381.59c-1.67,1.38-6.86,6.34-8.29,6.78-4.34,1.33-7.93-3.02-6.61-7.41.22-.74,5.51-5.61,6.59-6.53s8.19-6.18,8.96-6.43c3.77-1.21,8.06,1.57,7.24,5.7-.65,3.26-2.9,3.76-5,5.6"/>
      <path class="cls-4" d="M189.97,48.82c.9,5.74,3.37,17.94-3.52,17.83-2.38-.04-4.43-1.72-5.14-3.99-.58-1.83-1.32-3.86-1.55-5.47s-.89-8.8-.74-10.05c.5-4.16,5.8-7.38,8.66-4.24,1.73,1.91,1.96,3.81,2.3,5.94Z"/>
      <path class="cls-4" d="M175.26,60.18c2.21,1.64,2.6,1.93,4.66,3.92,1.01.97,1.64,2.28,1.74,3.67.23,3.17.02,6.26-3.84,6.66-4.26.44-6.35-3.43-9.18-5.6-.86-.66-1.79-1.42-2.37-1.89-2.91-2.39-7.79-4.41-7.36-8.44,1.05-9.9,12.7-1.02,16.36,1.69Z"/>
      <path class="cls-4" d="M159.53,370.68c-1.07.22-2.67.48-4.02.68-3.84.57-11.67,3.37-13.06-2.71-1.24-5.44.9-5.85,5.08-6.96,4.97-1.33,19.7-5.26,20.85,2.03.8,5.06-5.23,6.22-8.86,6.97Z"/>
      <path class="cls-4" d="M493.73,28.68c-6.91,7.89-13.94.61-10.49-5.25.14-.24.91-1.23,1.4-1.91,2.79-3.88,8.22-12.48,13.38-10.28,8.95,3.82-1.36,14.14-4.29,17.44Z"/>
      <path class="cls-4" d="M627.6,186.12c-1.33,2.47-4.11,3.96-6.86,3.38s-4.83-3.11-3.78-7.09c.27-1.02,4.29-10.17,4.91-11.23,2.87-4.98,9.99-5.27,11.13.55.6,3.1-2.68,9.35-5.39,14.39Z"/>
      <path class="cls-4" d="M628.71,204.03c-1.75,1.1-5.73,1.31-7.21-.61-3.83-4.98,2.32-9.06,5.61-11.99,2.77-2.48,5.23-7.05,9.8-3.43,6.13,4.85-2.94,11.18-6.48,14.66-.85.83-1.62,1.3-1.73,1.37Z"/>
      <rect class="cls-4" x="450.68" y="-.58" width="10.61" height="25.71" rx="5.31" ry="5.31" transform="translate(30.48 176.65) rotate(-22.66)"/>
      <path class="cls-1" d="M505.48,282.42c2.27,2.07,2.15,8.32,1.56,11.21-1.46,7.23-12.37,6.51-8.44,16.3,2.43,6.04,6.18,8.72,12.77,9.03,8.59.4,10.88-9.48,16.63-6.97,6.62,2.89,1.2,10.06-2.41,12.96-8.8,7.08-25.42,5.23-32.24-3.76-4.3,6.2-9.57,12.67-16.88,15.34-5.83,2.14-26.9,4.8-26.9-4.48,0-8.24,9.77-3.25,13.77-3.36,5.79-.15,12.48-2.52,16.54-6.75,2.47-2.57,8.23-11.48,5.67-14.71-.64-.82-9.97-5.27-12.3-7.18-3.34-2.75-4.95-4.44-4.21-9.2,1.39-8.98,16.07-3.92,20.18.33,1.47-6.19,10.27-14.23,16.26-8.76Z"/>
      <ellipse class="cls-2" cx="406.04" cy="249.42" rx="15.95" ry="34.25" transform="translate(36.49 550.28) rotate(-70.71)"/>
      <ellipse class="cls-2" cx="536.19" cy="228.93" rx="27.5" ry="15.95" transform="translate(55.75 559.21) rotate(-57.63)"/>
      <path class="cls-1" d="M382.67,222.4c16.31-1.01,44.89,8.59,56.72,20.03s7.42,31.31-9.18,33.55c-20.4,2.75-43.9-5.36-57.9-20.41-12.33-13.26-10.15-31.9,10.36-33.17ZM392.37,233.61c-12.05,2.04-11.04,17.29,1.52,19.12,20.85,3.04,14.24-21.79-1.52-19.12ZM420.08,248.59c-7.24,1.64-1.94,12.74,3.97,11.51,7.48-1.56,5.13-13.57-3.97-11.51Z"/>
      <path class="cls-1" d="M546,197.62c16.5-2.24,22.5,12.89,17.55,26.56-4.88,13.48-25.96,37.86-41.64,36.2-6.12-.65-13.92-8.52-14.64-14.65-2.08-17.71,21.4-45.75,38.73-48.11ZM542.97,210.33c-6.17.82-12.7,11.7-7.3,17.49,7.29,7.81,21.1-1.3,17.66-12.43-1.05-3.4-7.24-5.47-10.36-5.05ZM527.23,235.09c-4.1,1.23-6.04,8.55-1.7,11.14,9.03,5.4,13.09-14.56,1.7-11.14Z"/>
      <path class="cls-1" d="M439.62,208.09c6.99-.68,12.66,7,9.31,13.87-2.13,4.38-5.88,4.48-10.28,3.96-10.53-1.23-11.24-16.64.97-17.83Z"/>
      <path class="cls-1" d="M509.2,202.94c4.72,4.73.47,14.53-6.17,15.45-10.95,1.52-13.19-15.97-2.96-17.23,2.88-.35,6.99-.36,9.12,1.78Z"/>
    </g>
  </g>
</svg>