<?xml version="1.0" encoding="UTF-8"?>
<svg id="Layer_2" data-name="Layer 2" xmlns="http://www.w3.org/2000/svg" viewBox="0 0 289.1 512">
  <defs>
    <style>
      .cls-1 {
        fill: #fff;
      }

      .cls-2 {
        fill: #4b4b4b;
      }
    </style>
  </defs>
  <g id="Layer_1-2" data-name="Layer 1">
    <g>
      <path class="cls-2" d="M225.34,323.52c.39,12.12-.57,24.39,0,36.5,1.95,41.33,11.35,73.78.49,116.37-2.11,8.29-11.69,28.89-20.65,30.93-11.09,2.53-13.73-3.83-17.66-12.1-10.27-21.58-9.71-43.29-15.99-65.79-2.12-7.61-7.66-28.19-16.9-28.72-3.71-.21-15.45,5.71-17.61,9.22-11.91,19.34-9.08,47.13-15.33,68.39-1.99,6.76-9.55,23.76-13.68,29.15-5,6.52-11.77,4.93-18.31,1.88-15.19-7.07-12.45-21.67-13.22-35.45-1.64-29.4-.91-59.05-.97-88.6l-6.86-51.08c-1.08-.19-1.95.15-2.95.45-14.28,4.36-27.56,24.89-31.62,38.46-1.52,5.07.1,8.25-4.35,13.17-5.82,6.42-12.02,9.46-20.83,8.19-14.18-2.04-7.36-28.1-6.42-38.38,4.44-48.44,15.12-84.57,45.34-123.07,1.87-2.38,16.16-18.4,17.43-18.4,6.27,4.74,12.85,9.28,19.66,13.27,19.22,11.26,44.17,26.24,67,25.55,21.78-.66,46-25.35,58.82-41.48,3.04-1.82,26.23,24.62,29.18,28.32,23.17,29.01,53.89,93.96,48.6,131.33-.92,6.46-10.3,16.75-16.96,16.6-4.25-.09-9.92-4.01-13.13-6.77-11.77-10.1-21.9-40.42-30.62-55.04-.63-1.06-.98-2.67-2.44-2.9Z"/>
      <path class="cls-2" d="M135.6.57c20.54-1.83,35.14.46,52.66,10.99,41.85,25.14,60.18,71.59,56.56,119.71-2.49,33.19-48.64,90.82-77.24,106.74-24.02,13.37-51.12-3.11-72.35-15.58-23.07-13.55-32.14-23.45-46.85-45.62-21.56-32.48-29.21-73.5-9.1-109.03C62.1,27.46,87.5,4.85,135.6.57ZM201.7,86.18c-5.91,1.21-16.28,11.12-20.15,15.87-12.8,15.72-20.05,42.77-14.93,62.6,1.7,6.58,5.78,8.13,12.26,6.77,6.73-1.42,30.55-22.31,34.57-28.69,9.53-15.12,16.25-34.86,5.89-51.27-3.58-5.67-11.52-6.53-17.64-5.27ZM68.45,90.09c-15.42,1.22-20.08,13.31-18.04,27.25,1.92,13.18,29.78,44.58,40.71,52.74,6.61,4.94,19.21,7.77,24.66.51,9.21-12.27,1.84-34.5-4.78-46.69-7.43-13.69-25.55-35.16-42.55-33.81ZM158.91,198.65c5.09-5.11-4.92-12.07-8.07-5.6-2.64,5.43,4.73,8.95,8.07,5.6ZM129.63,192.23c-3.51,1.24-3.52,8.43,1.78,8.71,8.64.45,6.01-11.45-1.78-8.71Z"/>
      <path class="cls-1" d="M68.45,90.09c16.99-1.35,35.12,20.12,42.55,33.81,6.62,12.19,13.99,34.41,4.78,46.69-5.45,7.26-18.05,4.43-24.66-.51-10.93-8.16-38.78-39.56-40.71-52.74-2.03-13.94,2.63-26.03,18.04-27.25Z"/>
      <path class="cls-1" d="M201.7,86.18c6.13-1.25,14.06-.4,17.64,5.27,10.36,16.4,3.64,36.15-5.89,51.27-4.02,6.38-27.85,27.27-34.57,28.69-6.48,1.36-10.56-.19-12.26-6.77-5.12-19.83,2.13-46.88,14.93-62.6,3.87-4.75,14.24-14.66,20.15-15.87Z"/>
      <path class="cls-1" d="M158.91,198.65c-3.34,3.35-10.72-.16-8.07-5.6,3.15-6.47,13.16.48,8.07,5.6Z"/>
      <path class="cls-1" d="M129.63,192.23c7.79-2.75,10.43,9.16,1.78,8.71-5.3-.27-5.29-7.47-1.78-8.71Z"/>
    </g>
  </g>
</svg>