<svg width="1520" height="1143" viewBox="0 0 1520 1143" fill="none" xmlns="http://www.w3.org/2000/svg">
<ellipse cx="728.946" cy="852.005" rx="147.923" ry="250.518" transform="rotate(33.0445 728.946 852.005)" fill="#87CC5D"/>
<ellipse cx="258.955" cy="287.244" rx="120.624" ry="172.432" transform="rotate(-16.2056 258.955 287.244)" fill="#87CC5D"/>
<ellipse cx="194.827" cy="373.406" rx="128.339" ry="179.809" transform="rotate(-82.608 194.827 373.406)" fill="#87CC5D"/>
<path d="M1100.54 485.282C1133 460.888 1179.2 461.028 1227.75 481.147C1276.29 501.261 1327.09 541.313 1368.61 596.552C1410.14 651.791 1434.49 711.719 1440.32 763.938C1446.16 816.171 1433.45 860.59 1401 884.985C1368.55 909.379 1322.35 909.239 1273.79 889.121C1225.25 869.007 1174.45 828.955 1132.93 773.716C1091.41 718.478 1067.05 658.549 1061.22 606.329C1055.38 554.097 1068.09 509.677 1100.54 485.282Z" fill="#52A91D" stroke="#52A91D"/>
<ellipse cx="824.379" cy="495.918" rx="610.47" ry="471.112" transform="rotate(2.36655 824.379 495.918)" fill="#87CC5D"/>
<path d="M395.178 809.937L361.747 817.171" stroke="#52A91D" stroke-width="25" stroke-linecap="round"/>
<path d="M1429.11 470.889L1459.42 448.001" stroke="#52A91D" stroke-width="25" stroke-linecap="round"/>
<path d="M424.495 828.502L396.454 851.857" stroke="#52A91D" stroke-width="25" stroke-linecap="round"/>
<path d="M752.969 194.195C834.171 239.208 869.786 274.564 914.876 356.59" stroke="#52A91D" stroke-width="30" stroke-linecap="round"/>
<circle cx="730.881" cy="180.605" r="39" transform="rotate(-2.38793 730.881 180.605)" fill="#52A91D" stroke="#52A91D"/>
<circle cx="39.5" cy="39.5" r="39" transform="matrix(-0.999701 -0.0244604 -0.0244604 0.999701 1261.13 90.3398)" fill="#52A91D" stroke="#52A91D"/>
<path d="M1124.04 345.959C1132.85 265.187 1154.44 220.097 1204.93 146.879" stroke="#52A91D" stroke-width="30" stroke-linecap="round"/>
<ellipse cx="885.516" cy="564.935" rx="96.8665" ry="55.9575" transform="rotate(18.3014 885.516 564.935)" fill="#132705"/>
<path d="M1066.29 666.988C1073.99 671.798 1079.76 678.044 1082.88 684.231C1085.99 690.428 1086.4 696.481 1083.58 701.013C1080.75 705.544 1075.13 707.834 1068.2 707.76C1061.27 707.686 1053.12 705.249 1045.42 700.439C1037.71 695.63 1031.94 689.383 1028.82 683.196C1025.71 677 1025.3 670.946 1028.12 666.414C1030.95 661.883 1036.57 659.594 1043.5 659.667C1050.43 659.741 1058.58 662.179 1066.29 666.988Z" fill="#132705" stroke="#132705"/>
<path d="M1102.91 692.871C1097.22 699.956 1090.33 704.946 1083.82 707.301C1077.3 709.66 1071.24 709.353 1067.07 706.009C1062.91 702.665 1061.3 696.814 1062.2 689.937C1063.09 683.069 1066.48 675.269 1072.17 668.184C1077.86 661.099 1084.74 656.109 1091.25 653.754C1097.78 651.395 1103.84 651.701 1108 655.046C1112.16 658.39 1113.77 664.241 1112.88 671.118C1111.98 677.985 1108.6 685.787 1102.91 692.871Z" fill="#132705" stroke="#132705"/>
<path d="M985.161 764.102C1035.29 781.458 1067.13 753.704 1077.4 707.782" stroke="#132705" stroke-width="25" stroke-linecap="round"/>
<path d="M1161.27 741.093C1127.86 761.762 1093.05 747.303 1077.4 707.78" stroke="#132705" stroke-width="25" stroke-linecap="round"/>
<ellipse cx="863.873" cy="554.158" rx="27.0312" ry="21.2609" transform="rotate(22.5967 863.873 554.158)" fill="white"/>
<ellipse cx="922.33" cy="582.992" rx="15.7967" ry="12.4246" transform="rotate(22.5967 922.33 582.992)" fill="white"/>
<ellipse cx="1194.95" cy="539.438" rx="90.1114" ry="52.0553" transform="rotate(135.99 1194.95 539.438)" fill="#132705"/>
<ellipse cx="1211.05" cy="524.651" rx="25.1462" ry="19.7782" transform="rotate(130.523 1211.05 524.651)" fill="white"/>
<ellipse cx="1170.34" cy="567.618" rx="14.6951" ry="11.5582" transform="rotate(130.523 1170.34 567.618)" fill="white"/>
<circle cx="960.977" cy="494.391" r="20" fill="#132705"/>
<circle cx="1119" cy="480.391" r="20" fill="#132705"/>
<path d="M1416.34 438.266L1435.36 405.39" stroke="#52A91D" stroke-width="25" stroke-linecap="round"/>
<path d="M1074.68 79.3569L1099.25 50.3903" stroke="#52A91D" stroke-width="25" stroke-linecap="round"/>
<path d="M1006.64 63.9568L996.355 27.3902" stroke="#52A91D" stroke-width="25" stroke-linecap="round"/>
<path d="M1037.06 70.7019L1045.89 33.7593" stroke="#52A91D" stroke-width="25" stroke-linecap="round"/>
<path d="M463.977 127.695L459.283 90.001" stroke="#52A91D" stroke-width="25" stroke-linecap="round"/>
<path d="M437.16 150.528L407.998 126.189" stroke="#52A91D" stroke-width="25" stroke-linecap="round"/>
</svg>
