<svg width="292" height="263" viewBox="0 0 292 263" fill="none" xmlns="http://www.w3.org/2000/svg">
<path d="M277.763 127.62C264.553 116.323 243.374 109 219.5 109C211.682 109 204.153 109.788 197.098 111.241C183.827 103.054 165.607 98 145.5 98C125.673 98 107.68 102.913 94.459 110.9C87.8169 109.666 80.7824 109 73.5 109C49.1978 109 27.6503 116.382 14.2695 127.758L0 69H292L277.763 127.62Z" fill="black"/>
<path d="M47 263H20C8.95431 263 3.70472e-07 254.046 0 243V137H47V263ZM228 263H64V137H111V175C111 186.046 119.954 195 131 195H161C172.046 195 181 186.046 181 175V137H228V263ZM292 243C292 254.046 283.046 263 272 263H245V137H292V243Z" fill="black"/>
<path d="M140 158H151V173.5C151 176.538 148.538 179 145.5 179V179C142.462 179 140 176.538 140 173.5V158Z" fill="black"/>
<circle cx="145.5" cy="148.5" r="11.5" fill="black"/>
<path d="M64 50C64 22.3858 86.3858 0 114 0H178C205.614 0 228 22.3858 228 50V52H64V50Z" fill="black"/>
<path d="M73.6953 0C58.1703 12.2408 47.9545 30.9141 47.0654 52H0.53125C4.44248 22.6452 29.5764 8.57708e-07 60.001 0H73.6953ZM232.001 0C262.426 0 287.559 22.6452 291.471 52H244.937C244.047 30.9141 233.832 12.2408 218.307 0H232.001Z" fill="black"/>
</svg>
