<?xml version="1.0" encoding="UTF-8"?>
<svg id="Layer_1" xmlns="http://www.w3.org/2000/svg" version="1.1" viewBox="0 0 512 512">
  <!-- Generator: Adobe Illustrator 29.4.0, SVG Export Plug-In . SVG Version: 2.1.0 Build 152)  -->
  <path d="M275.8,481.2h-41.7c-11.5,0-21.8-6.3-26.9-16.5-4-8-9.1-18.5-14.8-30.7l-71.3,71.3c-5.8,5.8-14.3,8.1-22.2,5.9s-14.1-8.4-16.1-16.4l-24.3-95c-6-23.5.8-48.4,17.9-65.5l55.5-55.5c-1.1-4.3-2-8.4-2.8-12.5C102.9,129.7,182.5,44.8,240.6,4.8c9.2-6.4,21.4-6.3,30.7,0,58.2,40.1,137.6,125,111.4,261.6-.7,4-1.7,8.2-2.8,12.5l55.5,55.5c17.1,17.1,24,42.1,17.9,65.5l-24.3,95c-2,8-8.2,14.2-16.1,16.4-8,2.2-16.4,0-22.2-5.9l-72.2-72.2c-6.2,12.8-11.8,23.8-16,32.1-5.1,10-15.4,16.1-26.7,16.2h0ZM282.9,181.8c14.9-14.9,14.9-39,0-53.9-14.9-14.9-39-14.9-53.9,0-14.9,14.9-14.9,39,0,53.9,14.9,14.9,39,14.9,53.9,0Z"/>
</svg>