<svg width="1520" height="1147" viewBox="0 0 1520 1147" fill="none" xmlns="http://www.w3.org/2000/svg">
<path d="M592.341 1066C660.822 1110.55 777.497 1052.64 852.942 936.666C928.387 820.688 934.032 690.556 865.551 646.009C797.07 601.461 680.395 659.366 604.95 775.344C529.505 891.321 523.86 1021.45 592.341 1066Z" fill="#87CC5D"/>
<path d="M307.078 456.825C371.049 438.233 401.363 349.028 374.786 257.58C348.208 166.132 274.803 107.071 210.831 125.664C146.859 144.256 116.545 233.461 143.123 324.909C169.701 416.356 243.106 475.417 307.078 456.825Z" fill="#87CC5D"/>
<path d="M373.141 400.54C382.26 330.249 309.819 262.91 211.338 250.134C112.858 237.357 25.6309 283.982 16.5117 354.273C7.39255 424.563 79.8342 491.902 178.315 504.679C276.795 517.455 364.022 470.831 373.141 400.54Z" fill="#87CC5D"/>
<path d="M1100.54 489.282C1133 464.888 1179.2 465.028 1227.75 485.147C1276.29 505.261 1327.09 545.313 1368.61 600.552C1410.14 655.791 1434.49 715.719 1440.32 767.938C1446.16 820.171 1433.45 864.59 1401 888.985C1368.55 913.379 1322.35 913.239 1273.79 893.121C1225.25 873.007 1174.45 832.955 1132.93 777.716C1091.41 722.478 1067.05 662.549 1061.22 610.329C1055.38 558.097 1068.09 513.677 1100.54 489.282Z" fill="#52A91D" stroke="#52A91D"/>
<path d="M804.687 966.628C1141.55 980.55 1423.35 781.092 1434.09 521.126C1444.83 261.16 1180.46 39.1296 843.594 25.2077C506.728 11.2859 224.935 210.744 214.191 470.71C203.447 730.676 467.822 952.706 804.687 966.628Z" fill="#87CC5D"/>
<path d="M394.612 813.004L361.883 822.945" stroke="#52A91D" stroke-width="25" stroke-linecap="round"/>
<path d="M1429.11 474.89L1459.42 452.002" stroke="#52A91D" stroke-width="25" stroke-linecap="round"/>
<path d="M425.346 829.111L399.305 854.678" stroke="#52A91D" stroke-width="25" stroke-linecap="round"/>
<path d="M744.637 216.701C825.839 261.714 861.454 297.07 906.544 379.096" stroke="#52A91D" stroke-width="30" stroke-linecap="round"/>
<path d="M724.173 242.077C745.693 241.179 762.412 223.006 761.514 201.486C760.617 179.965 742.444 163.247 720.923 164.145C699.403 165.042 682.685 183.215 683.582 204.736C684.479 226.256 702.653 242.974 724.173 242.077Z" fill="#52A91D" stroke="#52A91D"/>
<path d="M1219.72 171.851C1198.19 171.324 1181.16 153.441 1181.69 131.909C1182.21 110.376 1200.1 93.3473 1221.63 93.8742C1243.16 94.401 1260.19 112.284 1259.66 133.816C1259.14 155.349 1241.25 172.378 1219.72 171.851Z" fill="#52A91D" stroke="#52A91D"/>
<path d="M1124.04 349.959C1132.85 269.187 1154.44 224.097 1204.93 150.879" stroke="#52A91D" stroke-width="30" stroke-linecap="round"/>
<path d="M867.945 624.062C918.737 640.862 967.779 630.694 977.483 601.353C987.188 572.012 953.88 534.607 903.088 517.808C852.296 501.009 803.254 511.176 793.55 540.518C783.845 569.859 817.153 607.263 867.945 624.062Z" fill="#132705"/>
<path d="M1066.29 669.989C1073.99 674.799 1079.76 681.045 1082.88 687.232C1085.99 693.429 1086.4 699.482 1083.58 704.014C1080.75 708.545 1075.13 710.835 1068.2 710.761C1061.27 710.687 1053.12 708.25 1045.42 703.44C1037.71 698.631 1031.94 692.384 1028.82 686.197C1025.71 680.001 1025.3 673.947 1028.12 669.415C1030.95 664.884 1036.57 662.595 1043.5 662.668C1050.43 662.742 1058.58 665.18 1066.29 669.989Z" fill="#132705" stroke="#132705"/>
<path d="M1102.91 695.871C1097.22 702.956 1090.33 707.946 1083.82 710.301C1077.3 712.66 1071.24 712.353 1067.07 709.009C1062.91 705.665 1061.3 699.814 1062.2 692.937C1063.09 686.069 1066.48 678.269 1072.17 671.184C1077.86 664.099 1084.74 659.109 1091.25 656.754C1097.78 654.395 1103.84 654.701 1108 658.046C1112.16 661.39 1113.77 667.241 1112.88 674.118C1111.98 680.985 1108.6 688.787 1102.91 695.871Z" fill="#132705" stroke="#132705"/>
<path d="M988.172 763.338C1038.29 780.693 1064.3 755.167 1074.57 709.244" stroke="#132705" stroke-width="25" stroke-linecap="round"/>
<path d="M1161.71 741.224C1127.04 764.624 1090.51 747.912 1074.4 707.904" stroke="#132705" stroke-width="25" stroke-linecap="round"/>
<path d="M856.594 582.794C870.75 587.536 885.249 582.354 888.979 571.22C892.708 560.086 884.256 547.216 870.1 542.474C855.944 537.733 841.445 542.915 837.716 554.049C833.986 565.183 842.438 578.053 856.594 582.794Z" fill="white"/>
<path d="M915.77 599.306C924.042 602.077 932.515 599.049 934.695 592.543C936.874 586.036 931.935 578.515 923.662 575.744C915.39 572.973 906.917 576.001 904.737 582.508C902.558 589.014 907.497 596.535 915.77 599.306Z" fill="white"/>
<path d="M1165.18 498.992C1127.3 530.619 1111.41 573.995 1129.68 595.875C1147.95 617.756 1193.46 609.855 1231.34 578.229C1269.22 546.603 1285.11 503.227 1266.84 481.346C1248.57 459.466 1203.06 467.366 1165.18 498.992Z" fill="#132705"/>
<path d="M1202.7 510.96C1192.34 520.214 1189.85 534.318 1197.13 542.463C1204.41 550.608 1218.7 549.709 1229.06 540.455C1239.41 531.201 1241.91 517.096 1234.63 508.952C1227.35 500.807 1213.06 501.706 1202.7 510.96Z" fill="white"/>
<path d="M1162.09 554.217C1156.04 559.625 1154.58 567.868 1158.83 572.628C1163.09 577.387 1171.44 576.862 1177.49 571.454C1183.54 566.046 1185 557.804 1180.75 553.044C1176.49 548.284 1168.14 548.809 1162.09 554.217Z" fill="white"/>
<path d="M960.977 515.391C972.022 515.391 980.977 506.436 980.977 495.391C980.977 484.345 972.022 475.391 960.977 475.391C949.931 475.391 940.977 484.345 940.977 495.391C940.977 506.436 949.931 515.391 960.977 515.391Z" fill="#132705"/>
<path d="M1121 497.391C1132.05 497.391 1141 488.436 1141 477.391C1141 466.345 1132.05 457.391 1121 457.391C1109.95 457.391 1101 466.345 1101 477.391C1101 488.436 1109.95 497.391 1121 497.391Z" fill="#132705"/>
<path d="M1416.34 442.267L1435.36 409.391" stroke="#52A91D" stroke-width="25" stroke-linecap="round"/>
<path d="M999.86 66.7802L995.922 29" stroke="#52A91D" stroke-width="25" stroke-linecap="round"/>
<path d="M1037.23 75.2681L1048.52 39" stroke="#52A91D" stroke-width="25" stroke-linecap="round"/>
<path d="M466.44 132.788L451.973 97.666" stroke="#52A91D" stroke-width="25" stroke-linecap="round"/>
<path d="M437.158 154.528L407.996 130.189" stroke="#52A91D" stroke-width="25" stroke-linecap="round"/>
</svg>
